<svg width="24" height="25" viewBox="0 0 24 25" fill="none" xmlns="http://www.w3.org/2000/svg">
<path d="M9 22.8272H15C20 22.8272 22 20.8088 22 15.7629V9.70783C22 4.66192 20 2.64355 15 2.64355H9C4 2.64355 2 4.66192 2 9.70783V15.7629C2 20.8088 4 22.8272 9 22.8272Z" stroke="#9197B3" stroke-width="1.5" stroke-linecap="round" stroke-linejoin="round"/>
<path d="M16.2799 14.3601C15.1499 15.5005 13.5299 15.8537 12.0999 15.3996L9.50995 18.0033C9.32995 18.195 8.95995 18.3161 8.68995 18.2758L7.48995 18.1143C7.08995 18.0638 6.72995 17.6804 6.66995 17.2868L6.50995 16.0758C6.46995 15.8134 6.59995 15.44 6.77995 15.2482L9.35995 12.6445C8.91995 11.2014 9.25995 9.56654 10.3899 8.42617C12.0099 6.79129 14.6499 6.79129 16.2799 8.42617C17.8999 10.051 17.8999 12.7152 16.2799 14.3601Z" stroke="#9197B3" stroke-width="1.5" stroke-miterlimit="10" stroke-linecap="round" stroke-linejoin="round"/>
<path d="M10.4501 17.0547L9.6001 16.1868" stroke="#9197B3" stroke-width="1.5" stroke-miterlimit="10" stroke-linecap="round" stroke-linejoin="round"/>
<path d="M13.3945 11.4234H13.4035" stroke="#9197B3" stroke-width="2" stroke-linecap="round" stroke-linejoin="round"/>
</svg>
