<svg width="132" height="39" viewBox="0 0 132 39" fill="none" xmlns="http://www.w3.org/2000/svg">
<path d="M56.154 29L52.15 21.928H50.434V29H46.794V10.852H53.606C55.01 10.852 56.206 11.1033 57.194 11.606C58.182 12.0913 58.9187 12.7587 59.404 13.608C59.9067 14.44 60.158 15.376 60.158 16.416C60.158 17.612 59.8113 18.6953 59.118 19.666C58.4247 20.6193 57.3933 21.278 56.024 21.642L60.366 29H56.154ZM50.434 19.198H53.476C54.464 19.198 55.2007 18.964 55.686 18.496C56.1713 18.0107 56.414 17.3433 56.414 16.494C56.414 15.662 56.1713 15.0207 55.686 14.57C55.2007 14.102 54.464 13.868 53.476 13.868H50.434V19.198ZM77.1003 21.486C77.1003 22.006 77.0656 22.474 76.9963 22.89H66.4663C66.5529 23.93 66.9169 24.7447 67.5583 25.334C68.1996 25.9233 68.9883 26.218 69.9243 26.218C71.2763 26.218 72.2383 25.6373 72.8103 24.476H76.7363C76.3203 25.8627 75.5229 27.0067 74.3443 27.908C73.1656 28.792 71.7183 29.234 70.0023 29.234C68.6156 29.234 67.3676 28.9307 66.2583 28.324C65.1663 27.7 64.3083 26.8247 63.6843 25.698C63.0776 24.5713 62.7743 23.2713 62.7743 21.798C62.7743 20.3073 63.0776 18.9987 63.6843 17.872C64.2909 16.7453 65.1403 15.8787 66.2323 15.272C67.3243 14.6653 68.5809 14.362 70.0023 14.362C71.3716 14.362 72.5936 14.6567 73.6683 15.246C74.7603 15.8353 75.6009 16.676 76.1903 17.768C76.7969 18.8427 77.1003 20.082 77.1003 21.486ZM73.3303 20.446C73.3129 19.51 72.9749 18.7647 72.3163 18.21C71.6576 17.638 70.8516 17.352 69.8983 17.352C68.9969 17.352 68.2343 17.6293 67.6103 18.184C67.0036 18.7213 66.6309 19.4753 66.4923 20.446H73.3303ZM87.9991 14.388C89.7151 14.388 91.1018 14.934 92.1591 16.026C93.2165 17.1007 93.7451 18.6087 93.7451 20.55V29H90.1051V21.044C90.1051 19.9 89.8191 19.0247 89.2471 18.418C88.6751 17.794 87.8951 17.482 86.9071 17.482C85.9018 17.482 85.1045 17.794 84.5151 18.418C83.9431 19.0247 83.6571 19.9 83.6571 21.044V29H80.0171V14.596H83.6571V16.39C84.1425 15.766 84.7578 15.2807 85.5031 14.934C86.2658 14.57 87.0978 14.388 87.9991 14.388ZM101.705 17.586V24.554C101.705 25.0393 101.817 25.3947 102.043 25.62C102.285 25.828 102.684 25.932 103.239 25.932H104.929V29H102.641C99.5726 29 98.0386 27.5093 98.0386 24.528V17.586H96.3226V14.596H98.0386V11.034H101.705V14.596H104.929V17.586H101.705ZM106.871 21.746C106.871 20.29 107.157 18.9987 107.729 17.872C108.318 16.7453 109.107 15.8787 110.095 15.272C111.1 14.6653 112.218 14.362 113.449 14.362C114.523 14.362 115.459 14.5787 116.257 15.012C117.071 15.4453 117.721 15.9913 118.207 16.65V14.596H121.873V29H118.207V26.894C117.739 27.57 117.089 28.1333 116.257 28.584C115.442 29.0173 114.497 29.234 113.423 29.234C112.209 29.234 111.1 28.922 110.095 28.298C109.107 27.674 108.318 26.7987 107.729 25.672C107.157 24.528 106.871 23.2193 106.871 21.746ZM118.207 21.798C118.207 20.914 118.033 20.16 117.687 19.536C117.34 18.8947 116.872 18.4093 116.283 18.08C115.693 17.7333 115.061 17.56 114.385 17.56C113.709 17.56 113.085 17.7247 112.513 18.054C111.941 18.3833 111.473 18.8687 111.109 19.51C110.762 20.134 110.589 20.8793 110.589 21.746C110.589 22.6127 110.762 23.3753 111.109 24.034C111.473 24.6753 111.941 25.1693 112.513 25.516C113.102 25.8627 113.726 26.036 114.385 26.036C115.061 26.036 115.693 25.8713 116.283 25.542C116.872 25.1953 117.34 24.71 117.687 24.086C118.033 23.4447 118.207 22.682 118.207 21.798ZM129.328 9.76V29H125.688V9.76H129.328Z" fill="white"/>
<path d="M18.5003 35.8876C17.4674 35.8876 16.419 35.6564 15.602 35.1784L7.12284 30.2914C3.66951 27.9634 3.45367 27.6089 3.45367 23.9551V15.0443C3.45367 11.3905 3.65409 11.0359 7.04576 8.73887L15.5865 3.80553C17.2053 2.86512 19.749 2.86512 21.3678 3.80553L29.8778 8.70803C33.3311 11.0359 33.547 11.3905 33.547 15.0443V23.9397C33.547 27.5934 33.3465 27.948 29.9549 30.2451L21.414 35.1784C20.5815 35.6564 19.5332 35.8876 18.5003 35.8876ZM18.5003 5.42428C17.8528 5.42428 17.2207 5.54762 16.7736 5.8097L8.29451 10.7122C5.78159 12.408 5.78159 12.408 5.78159 15.0443V23.9397C5.78159 26.5759 5.78159 26.5759 8.35617 28.318L16.7736 33.1743C17.6832 33.6984 19.3328 33.6984 20.2424 33.1743L28.7215 28.2718C31.219 26.5759 31.219 26.5759 31.219 23.9397V15.0443C31.219 12.408 31.219 12.408 28.6445 10.6659L20.227 5.8097C19.7799 5.54762 19.1478 5.42428 18.5003 5.42428Z" fill="white"/>
<path d="M18.5 25.2812C15.3088 25.2812 12.7188 22.6912 12.7188 19.5C12.7188 16.3088 15.3088 13.7188 18.5 13.7188C21.6912 13.7188 24.2812 16.3088 24.2812 19.5C24.2812 22.6912 21.6912 25.2812 18.5 25.2812ZM18.5 16.0312C16.5883 16.0312 15.0312 17.5883 15.0312 19.5C15.0312 21.4117 16.5883 22.9688 18.5 22.9688C20.4117 22.9688 21.9688 21.4117 21.9688 19.5C21.9688 17.5883 20.4117 16.0312 18.5 16.0312Z" fill="white"/>
</svg>
